<svg width="609" height="219" viewBox="0 0 609 219" fill="none" xmlns="http://www.w3.org/2000/svg">
<path d="M271 639C206.871 639 148.92 625.173 97.1462 597.518C45.9608 569.863 5.65971 531.912 -23.7572 483.663C-52.5857 434.826 -67 380.105 -67 319.5C-67 258.895 -52.5857 204.468 -23.7572 156.22C5.65971 107.383 45.9608 69.1367 97.1462 41.482C148.92 13.8273 206.871 0 271 0C335.129 0 392.786 13.8273 443.971 41.482C495.157 69.1367 535.458 107.383 564.875 156.22C594.292 204.468 609 258.895 609 319.5C609 380.105 594.292 434.826 564.875 483.663C535.458 531.912 495.157 569.863 443.971 597.518C392.786 625.173 335.129 639 271 639ZM271 517.202C307.477 517.202 340.424 508.964 369.841 492.489C399.258 475.425 422.203 451.889 438.676 421.881C455.738 391.873 464.269 357.746 464.269 319.5C464.269 281.254 455.738 247.127 438.676 217.119C422.203 187.11 399.258 163.869 369.841 147.394C340.424 130.33 307.477 121.798 271 121.798C234.523 121.798 201.576 130.33 172.159 147.394C142.742 163.869 119.503 187.11 102.441 217.119C85.9678 247.127 77.7311 281.254 77.7311 319.5C77.7311 357.746 85.9678 391.873 102.441 421.881C119.503 451.889 142.742 475.425 172.159 492.489C201.576 508.964 234.523 517.202 271 517.202Z" fill="white" fill-opacity="0.34"/>
</svg>
