<svg width="1150" height="521" viewBox="0 0 1150 521" fill="none" xmlns="http://www.w3.org/2000/svg">
<path d="M575 804C465.905 804 367.319 780.478 279.243 733.435C192.167 686.392 123.607 621.832 73.564 539.757C24.5213 456.68 0 363.595 0 260.5C0 157.405 24.5213 64.82 73.564 -17.2556C123.607 -100.332 192.167 -165.392 279.243 -212.435C367.319 -259.478 465.905 -283 575 -283C684.095 -283 782.18 -259.478 869.256 -212.435C956.332 -165.392 1024.89 -100.332 1074.93 -17.2556C1124.98 64.82 1150 157.405 1150 260.5C1150 363.595 1124.98 456.68 1074.93 539.757C1024.89 621.832 956.332 686.392 869.256 733.435C782.18 780.478 684.095 804 575 804ZM575 596.809C637.054 596.809 693.103 582.796 743.146 554.771C793.19 525.744 832.224 485.707 860.248 434.66C889.273 383.613 903.786 325.56 903.786 260.5C903.786 195.44 889.273 137.387 860.248 86.3398C832.224 35.2928 793.19 -4.24356 743.146 -32.2693C693.103 -61.296 637.054 -75.8094 575 -75.8094C512.946 -75.8094 456.897 -61.296 406.854 -32.2693C356.81 -4.24356 317.276 35.2928 288.251 86.3398C260.226 137.387 246.214 195.44 246.214 260.5C246.214 325.56 260.226 383.613 288.251 434.66C317.276 485.707 356.81 525.744 406.854 554.771C456.897 582.796 512.946 596.809 575 596.809Z" fill="white" fill-opacity="0.34"/>
</svg>
