<svg width="155" height="62" viewBox="0 0 155 62" fill="none" xmlns="http://www.w3.org/2000/svg">
<path d="M59.9424 179.697C41.9716 179.697 25.7319 175.822 11.2233 168.072C-3.12037 160.322 -14.414 149.687 -22.6575 136.167C-30.7361 122.481 -34.7754 107.146 -34.7754 90.1631C-34.7754 73.1797 -30.7361 57.9277 -22.6575 44.407C-14.414 30.7214 -3.12037 20.0037 11.2233 12.254C25.7319 4.50436 41.9716 0.629517 59.9424 0.629517C77.9133 0.629517 94.0705 4.50436 108.414 12.254C122.758 20.0037 134.052 30.7214 142.295 44.407C150.539 57.9277 154.66 73.1797 154.66 90.1631C154.66 107.146 150.539 122.481 142.295 136.167C134.052 149.687 122.758 160.322 108.414 168.072C94.0705 175.822 77.9133 179.697 59.9424 179.697ZM59.9424 145.565C70.1644 145.565 79.3971 143.257 87.6406 138.64C95.8841 133.858 102.314 127.263 106.93 118.853C111.712 110.444 114.102 100.881 114.102 90.1631C114.102 79.4454 111.712 69.882 106.93 61.4728C102.314 53.0635 95.8841 46.5505 87.6406 41.9337C79.3971 37.152 70.1644 34.7611 59.9424 34.7611C49.7205 34.7611 40.4878 37.152 32.2443 41.9337C24.0008 46.5505 17.4884 53.0635 12.7072 61.4728C8.0908 69.882 5.78262 79.4454 5.78262 90.1631C5.78262 100.881 8.0908 110.444 12.7072 118.853C17.4884 127.263 24.0008 133.858 32.2443 138.64C40.4878 143.257 49.7205 145.565 59.9424 145.565Z" fill="white" fill-opacity="0.34"/>
</svg>
