<svg width="41" height="121" viewBox="0 0 41 121" fill="none" xmlns="http://www.w3.org/2000/svg">
<path d="M95.8465 120.499C77.6629 120.499 61.2311 116.576 46.5508 108.729C32.0374 100.882 20.6101 90.114 12.269 76.424C4.09481 62.567 0.00769043 47.0405 0.00769043 29.8446C0.00769043 12.6486 4.09481 -2.79439 12.269 -16.4844C20.6101 -30.3413 32.0374 -41.1932 46.5508 -49.0399C61.2311 -56.8866 77.6629 -60.8099 95.8465 -60.8099C114.03 -60.8099 130.378 -56.8866 144.892 -49.0399C159.405 -41.1932 170.833 -30.3413 179.174 -16.4844C187.515 -2.79439 191.685 12.6486 191.685 29.8446C191.685 47.0405 187.515 62.567 179.174 76.424C170.833 90.114 159.405 100.882 144.892 108.729C130.378 116.576 114.03 120.499 95.8465 120.499ZM95.8465 85.9402C106.189 85.9402 115.531 83.6029 123.872 78.9282C132.213 74.0866 138.719 67.4086 143.39 58.8941C148.228 50.3796 150.647 40.6964 150.647 29.8446C150.647 18.9927 148.228 9.30957 143.39 0.795059C138.719 -7.71945 132.213 -14.314 123.872 -18.9887C115.531 -23.8302 106.189 -26.251 95.8465 -26.251C85.5035 -26.251 76.1616 -23.8302 67.8205 -18.9887C59.4794 -14.314 52.89 -7.71945 48.0522 0.795059C43.3812 9.30957 41.0457 18.9927 41.0457 29.8446C41.0457 40.6964 43.3812 50.3796 48.0522 58.8941C52.89 67.4086 59.4794 74.0866 67.8205 78.9282C76.1616 83.6029 85.5035 85.9402 95.8465 85.9402Z" fill="white" fill-opacity="0.39"/>
</svg>
