<svg width="309" height="146" viewBox="0 0 309 146" fill="none" xmlns="http://www.w3.org/2000/svg">
<path d="M147.094 225.305C116.522 225.305 88.8956 218.714 64.2139 205.531C39.8127 192.348 20.6002 174.256 6.57646 151.256C-7.16677 127.976 -14.0384 101.89 -14.0384 73C-14.0384 44.1097 -7.16677 18.1645 6.57646 -4.83553C20.6002 -28.1161 39.8127 -46.3478 64.2139 -59.5308C88.8956 -72.7137 116.522 -79.3052 147.094 -79.3052C177.666 -79.3052 205.152 -72.7137 229.553 -59.5308C253.955 -46.3478 273.167 -28.1161 287.191 -4.83553C301.215 18.1645 308.226 44.1097 308.226 73C308.226 101.89 301.215 127.976 287.191 151.256C273.167 174.256 253.955 192.348 229.553 205.531C205.152 218.714 177.666 225.305 147.094 225.305ZM147.094 167.244C164.483 167.244 180.19 163.317 194.214 155.464C208.237 147.329 219.176 136.11 227.029 121.805C235.163 107.5 239.23 91.2317 239.23 73C239.23 54.7682 235.163 38.4999 227.029 24.195C219.176 9.89012 208.237 -1.18917 194.214 -9.04285C180.19 -17.177 164.483 -21.2441 147.094 -21.2441C129.705 -21.2441 113.998 -17.177 99.9744 -9.04285C85.9507 -1.18917 74.8719 9.89012 66.7382 24.195C58.8849 38.4999 54.9583 54.7682 54.9583 73C54.9583 91.2317 58.8849 107.5 66.7382 121.805C74.8719 136.11 85.9507 147.329 99.9744 155.464C113.998 163.317 129.705 167.244 147.094 167.244Z" fill="white" fill-opacity="0.34"/>
</svg>
