<svg width="193" height="29" viewBox="0 0 193 29" fill="none" xmlns="http://www.w3.org/2000/svg">
<path d="M-2.92558 0.621826H-16V28.9251H-2.92558V0.621826Z" fill="#010101" fill-opacity="0.2"/>
<path d="M22.7491 28.9251H10.4818V0.621826H21.2964L38.3434 28.9251H25.778L22.7491 23.946V28.9251Z" fill="#010101" fill-opacity="0.2"/>
<path d="M61.8246 28.9251L61.811 23.2196L58.4141 28.9251H46.4769L63.2637 0.621826H73.9977L74.0785 28.9251H61.8246Z" fill="#010101" fill-opacity="0.2"/>
<path fill-rule="evenodd" clip-rule="evenodd" d="M131.91 28.9251H87.5626V0.621826H115.164C122.051 0.621826 127.324 1.94003 130.983 4.57644C134.695 7.21284 136.551 10.7908 136.551 15.3104C136.551 18.0544 135.879 20.5025 134.534 22.6547C133.242 24.8068 131.413 26.5017 129.046 27.7392C130.071 28.0639 131.026 28.4592 131.91 28.9251ZM100.556 10.468V23.7845H113.55C116.778 23.7845 119.226 23.2196 120.894 22.0897C122.562 20.9598 123.396 19.2919 123.396 17.0859C123.396 14.8799 122.562 13.2389 120.894 12.1628C119.226 11.0329 116.778 10.468 113.55 10.468H100.556Z" fill="#010101" fill-opacity="0.2"/>
<path d="M192.599 28.9251L179.943 0.621826H167.03L154.415 28.9251H166.998L173.406 13.4541L179.814 28.9251H192.599Z" fill="#010101" fill-opacity="0.2"/>
</svg>
