<svg width="1280" height="200" viewBox="0 0 1280 200" fill="none" xmlns="http://www.w3.org/2000/svg">
<path d="M646 675C768.566 675 879.325 648.535 978.277 595.606C1076.1 542.677 1153.13 470.041 1209.35 377.696C1264.45 284.226 1292 179.494 1292 63.5C1292 -52.4936 1264.45 -156.663 1209.35 -249.007C1153.13 -342.477 1076.1 -415.677 978.277 -468.606C879.325 -521.535 768.566 -548 646 -548C523.434 -548 413.237 -521.535 315.41 -468.606C217.582 -415.677 140.557 -342.477 84.3341 -249.007C28.1113 -156.663 0 -52.4936 0 63.5C0 179.494 28.1113 284.226 84.3341 377.696C140.557 470.041 217.582 542.677 315.41 595.606C413.237 648.535 523.434 675 646 675ZM646 441.887C576.284 441.887 513.314 426.121 457.091 394.588C400.869 361.93 357.015 316.884 325.53 259.45C292.921 202.017 276.616 136.7 276.616 63.5C276.616 -9.69983 292.921 -75.0166 325.53 -132.45C357.015 -189.884 400.869 -234.367 457.091 -265.899C513.314 -298.558 576.284 -314.887 646 -314.887C715.716 -314.887 778.686 -298.558 834.909 -265.899C891.131 -234.367 935.547 -189.884 968.157 -132.45C999.641 -75.0166 1015.38 -9.69983 1015.38 63.5C1015.38 136.7 999.641 202.017 968.157 259.45C935.547 316.884 891.131 361.93 834.909 394.588C778.686 426.121 715.716 441.887 646 441.887Z" fill="white" fill-opacity="0.39"/>
</svg>
