<svg width="584" height="200" viewBox="0 0 584 200" fill="none" xmlns="http://www.w3.org/2000/svg">
<path d="M342 387C406.888 387 465.525 373 517.911 344.999C569.702 316.998 610.48 278.571 640.245 229.718C669.415 180.27 684 124.864 684 63.5C684 2.13626 669.415 -52.9719 640.245 -101.825C610.48 -151.273 569.702 -189.998 517.911 -217.999C465.525 -246 406.888 -260 342 -260C277.112 -260 218.773 -246 166.982 -217.999C115.191 -189.998 74.4125 -151.273 44.6475 -101.825C14.8824 -52.9719 0 2.13626 0 63.5C0 124.864 14.8824 180.27 44.6475 229.718C74.4125 278.571 115.191 316.998 166.982 344.999C218.773 373 277.112 387 342 387ZM342 263.677C305.091 263.677 271.755 255.336 241.99 238.655C212.225 221.378 189.008 197.547 172.339 167.163C155.076 136.779 146.444 102.225 146.444 63.5C146.444 24.7753 155.076 -9.77901 172.339 -40.163C189.008 -70.547 212.225 -94.0797 241.99 -110.761C271.755 -128.038 305.091 -136.677 342 -136.677C378.909 -136.677 412.245 -128.038 442.01 -110.761C471.775 -94.0797 495.29 -70.547 512.554 -40.163C529.222 -9.77901 537.556 24.7753 537.556 63.5C537.556 102.225 529.222 136.779 512.554 167.163C495.29 197.547 471.775 221.378 442.01 238.655C412.245 255.336 378.909 263.677 342 263.677Z" fill="white" fill-opacity="0.39"/>
</svg>
