<svg width="482" height="520" viewBox="0 0 482 520" fill="none" xmlns="http://www.w3.org/2000/svg">
<path d="M313.5 556C230.114 556 154.76 538.018 87.4386 502.054C20.8825 466.09 -31.5209 416.735 -69.7715 353.989C-107.257 290.478 -126 219.315 -126 140.5C-126 61.6851 -107.257 -9.09531 -69.7715 -71.8412C-31.5209 -135.352 20.8825 -185.09 87.4386 -221.054C154.76 -257.018 230.114 -275 313.5 -275C396.886 -275 471.858 -257.018 538.414 -221.054C604.97 -185.09 657.373 -135.352 695.624 -71.8412C733.875 -9.09531 753 61.6851 753 140.5C753 219.315 733.875 290.478 695.624 353.989C657.373 416.735 604.97 466.09 538.414 502.054C471.858 538.018 396.886 556 313.5 556ZM313.5 397.605C360.931 397.605 403.772 386.892 442.022 365.467C480.273 343.276 510.108 312.668 531.529 273.644C553.714 234.619 564.807 190.238 564.807 140.5C564.807 90.7624 553.714 46.3812 531.529 7.35635C510.108 -31.6685 480.273 -61.8936 442.022 -83.3191C403.772 -105.51 360.931 -116.605 313.5 -116.605C266.069 -116.605 223.228 -105.51 184.978 -83.3191C146.727 -61.8936 116.509 -31.6685 94.3238 7.35635C72.9034 46.3812 62.1932 90.7624 62.1932 140.5C62.1932 190.238 72.9034 234.619 94.3238 273.644C116.509 312.668 146.727 343.276 184.978 365.467C223.228 386.892 266.069 397.605 313.5 397.605Z" fill="white" fill-opacity="0.39"/>
</svg>
